<svg width="35" height="35" viewBox="0 0 35 35" fill="none" xmlns="http://www.w3.org/2000/svg">
<g clip-path="url(#clip0_8_108)">
<path d="M26.6 0H8.4C3.76081 0 0 3.76081 0 8.4V26.6C0 31.2392 3.76081 35 8.4 35H26.6C31.2392 35 35 31.2392 35 26.6V8.4C35 3.76081 31.2392 0 26.6 0Z" fill="#FF7E84"/>
<mask id="mask0_8_108" style="mask-type:luminance" maskUnits="userSpaceOnUse" x="5" y="5" width="25" height="25">
<path d="M5.25002 29.75L29.75 29.75L29.75 5.25L5.25002 5.25L5.25002 29.75Z" fill="white"/>
</mask>
<g mask="url(#mask0_8_108)">
<path d="M6.20706 16.6506C5.90399 16.3635 5.66872 16.0286 5.50125 15.6457C5.33377 15.2629 5.25002 14.8602 5.25002 14.4375C5.25002 14.0148 5.32979 13.62 5.48928 13.2532C5.64878 12.8863 5.86812 12.5593 6.14725 12.2722C6.42637 11.9851 6.74939 11.7658 7.11622 11.6143C7.48309 11.4627 7.88185 11.383 8.31252 11.375C8.48 11.375 8.64747 11.387 8.81495 11.4109L14.4495 8.59961C14.4415 8.55176 14.4375 8.50392 14.4375 8.45608C14.4375 8.4082 14.4375 8.36035 14.4375 8.3125C14.4375 7.88981 14.5173 7.49505 14.6768 7.12818C14.8363 6.76131 15.0556 6.43433 15.3347 6.14723C15.6139 5.86013 15.9369 5.64078 16.3037 5.48927C16.6706 5.33775 17.0693 5.25799 17.5 5.25001C17.9147 5.25001 18.3055 5.32977 18.6724 5.48927C19.0392 5.64876 19.3662 5.86411 19.6533 6.13526C19.9405 6.4064 20.1638 6.72942 20.3233 7.10427C20.4828 7.47908 20.5665 7.86989 20.5745 8.27663L20.5745 8.43213C20.5745 8.47998 20.5665 8.5358 20.5505 8.59961L26.1851 11.4109C26.3526 11.387 26.52 11.375 26.6875 11.375C27.1102 11.375 27.505 11.4548 27.8718 11.6143C28.2387 11.7738 28.5657 11.9931 28.8528 12.2722C29.1399 12.5514 29.3592 12.8744 29.5108 13.2412C29.6623 13.6081 29.742 14.0068 29.75 14.4375C29.75 15.0037 29.6064 15.5261 29.3193 16.0046C29.0322 16.4831 28.6375 16.858 28.135 17.1291L26.0415 24.8093C26.4722 25.3596 26.6875 25.9857 26.6875 26.6875C26.6875 27.1102 26.6078 27.505 26.4483 27.8718C26.2888 28.2387 26.0694 28.5657 25.7903 28.8528C25.5112 29.1399 25.1882 29.3592 24.8213 29.5107C24.4544 29.6623 24.0557 29.742 23.625 29.75C23.0747 29.75 22.5643 29.6144 22.0938 29.3433C21.6232 29.0721 21.2484 28.6973 20.9693 28.2188L14.0308 28.2188C13.7517 28.6973 13.3768 29.0721 12.9063 29.3433C12.4357 29.6144 11.9253 29.75 11.375 29.75C10.9523 29.75 10.5576 29.6702 10.1907 29.5107C9.82382 29.3512 9.49685 29.1319 9.20974 28.8528C8.92264 28.5737 8.7033 28.2506 8.55178 27.8838C8.40027 27.5169 8.3205 27.1182 8.31252 26.6875C8.31252 26.3526 8.36435 26.0295 8.46802 25.7185C8.57173 25.4075 8.72723 25.1164 8.93457 24.8452L6.20706 16.6506ZM11.375 14.4375C11.375 14.8762 11.2873 15.2948 11.1118 15.6936C10.9364 16.0924 10.6812 16.4353 10.3462 16.7224L15.7175 20.7539L23.649 14.8084L23.625 14.4375L11.375 14.4375ZM23.625 23.625C23.9999 23.625 24.3667 23.6928 24.7256 23.8284L26.4483 17.488C26.0096 17.4482 25.5989 17.3245 25.2161 17.1172C24.8333 16.9098 24.5063 16.6307 24.2351 16.2798L16.9856 21.7109L21.1726 24.8452C21.4677 24.4624 21.8266 24.1633 22.2493 23.948C22.672 23.7327 23.1305 23.625 23.625 23.625ZM8.77907 17.4641C8.71527 17.4801 8.64348 17.488 8.56375 17.488C8.48398 17.488 8.40821 17.492 8.33646 17.5L8.21683 17.5C8.17693 17.5 8.13707 17.496 8.0972 17.488L10.2146 23.8523C10.6054 23.7008 10.9922 23.625 11.375 23.625C11.5345 23.625 11.6901 23.637 11.8416 23.6609L14.4375 21.7109L8.77907 17.4641ZM11.375 28.2188C11.5903 28.2188 11.7897 28.1789 11.9732 28.0991C12.1566 28.0194 12.3161 27.9117 12.4517 27.7761C12.5872 27.6406 12.6989 27.4771 12.7866 27.2857C12.8744 27.0942 12.9142 26.8948 12.9063 26.6875C12.9063 26.4722 12.8664 26.2728 12.7866 26.0894C12.7069 25.9059 12.5992 25.7464 12.4637 25.6108C12.3281 25.4753 12.1646 25.3636 11.9732 25.2759C11.7818 25.1881 11.5824 25.1483 11.375 25.1563C11.1597 25.1563 10.9603 25.1961 10.7769 25.2759C10.5934 25.3556 10.4339 25.4633 10.2983 25.5989C10.1628 25.7345 10.0511 25.8979 9.9634 26.0894C9.87565 26.2808 9.83579 26.4802 9.84377 26.6875C9.84377 26.9028 9.88363 27.1022 9.9634 27.2857C10.0432 27.4691 10.1508 27.6286 10.2864 27.7642C10.422 27.8997 10.5855 28.0114 10.7769 28.0991C10.9683 28.1869 11.1677 28.2267 11.375 28.2188ZM14.4375 26.6875L20.5625 26.6875L20.5865 26.3166L15.7175 22.668L13.4087 24.4026C13.7437 24.6897 13.9989 25.0326 14.1743 25.4314C14.3498 25.8302 14.4375 26.2488 14.4375 26.6875ZM23.625 28.2188C23.8403 28.2188 24.0397 28.1789 24.2232 28.0991C24.4066 28.0194 24.5661 27.9117 24.7017 27.7761C24.8372 27.6406 24.9489 27.4771 25.0366 27.2857C25.1244 27.0942 25.1642 26.8948 25.1563 26.6875C25.1563 26.4722 25.1164 26.2728 25.0366 26.0894C24.9569 25.9059 24.8492 25.7464 24.7137 25.6108C24.5781 25.4753 24.4146 25.3636 24.2232 25.2759C24.0318 25.1881 23.8324 25.1483 23.625 25.1563C23.4097 25.1563 23.2103 25.1961 23.0269 25.2759C22.8434 25.3556 22.6839 25.4633 22.5483 25.5989C22.4128 25.7345 22.3011 25.8979 22.2134 26.0894C22.1257 26.2808 22.0858 26.4802 22.0938 26.6875C22.0938 26.9028 22.1336 27.1022 22.2134 27.2857C22.2932 27.4691 22.4008 27.6286 22.5364 27.7642C22.672 27.8997 22.8355 28.0114 23.0269 28.0991C23.2183 28.1869 23.4177 28.2267 23.625 28.2188ZM28.2188 14.4375C28.2188 14.2222 28.1789 14.0228 28.0991 13.8394C28.0194 13.6559 27.9117 13.4964 27.7762 13.3608C27.6406 13.2253 27.4771 13.1136 27.2857 13.0259C27.0943 12.9381 26.8949 12.8983 26.6875 12.9063C26.4722 12.9063 26.2728 12.9461 26.0894 13.0259C25.9059 13.1056 25.7464 13.2133 25.6108 13.3489C25.4753 13.4845 25.3636 13.6479 25.2759 13.8394C25.1882 14.0308 25.1483 14.2302 25.1563 14.4375C25.1563 14.6528 25.1961 14.8522 25.2759 15.0357C25.3557 15.2191 25.4633 15.3786 25.5989 15.5142C25.7345 15.6497 25.898 15.7614 26.0894 15.8491C26.2808 15.9369 26.4802 15.9767 26.6875 15.9688C26.9028 15.9688 27.1022 15.9289 27.2857 15.8491C27.4691 15.7694 27.6286 15.6617 27.7642 15.5261C27.8997 15.3906 28.0114 15.2271 28.0991 15.0357C28.1869 14.8442 28.2267 14.6448 28.2188 14.4375ZM17.5 6.78126C17.2847 6.78126 17.0853 6.82112 16.9019 6.90088C16.7184 6.98065 16.5589 7.08831 16.4233 7.22387C16.2878 7.35946 16.1761 7.52294 16.0884 7.71435C16.0007 7.90577 15.9608 8.10516 15.9688 8.3125C15.9688 8.52782 16.0086 8.72722 16.0884 8.91065C16.1682 9.09409 16.2758 9.25359 16.4114 9.38918C16.547 9.52473 16.7105 9.63642 16.9019 9.72413C17.0933 9.81187 17.2927 9.85173 17.5 9.84375C17.7153 9.84375 17.9147 9.80389 18.0982 9.72413C18.2816 9.64436 18.4411 9.5367 18.5767 9.40114C18.7122 9.26555 18.8239 9.10207 18.9116 8.91065C18.9994 8.71924 19.0392 8.51984 19.0313 8.3125C19.0313 8.09718 18.9914 7.89779 18.9116 7.71435C18.8319 7.53092 18.7242 7.37142 18.5887 7.23583C18.4531 7.10028 18.2896 6.98859 18.0982 6.90088C17.9068 6.81314 17.7074 6.77328 17.5 6.78126ZM17.5 11.375C16.9976 11.375 16.5231 11.2594 16.0764 11.0281C15.6298 10.7968 15.263 10.4698 14.9759 10.0471L10.4898 12.2842C10.5775 12.3799 10.6612 12.4796 10.741 12.5832C10.8207 12.6869 10.8965 12.7946 10.9683 12.9063L24.0318 12.9063C24.0956 12.7946 24.1673 12.6869 24.2471 12.5832C24.3268 12.4796 24.4146 12.3799 24.5103 12.2842L20.0242 10.0471C19.7451 10.4619 19.3822 10.7848 18.9356 11.0161C18.4889 11.2474 18.0104 11.367 17.5 11.375ZM8.31252 12.9063C8.0972 12.9063 7.89781 12.9461 7.71437 13.0259C7.53094 13.1056 7.37144 13.2133 7.23585 13.3489C7.10029 13.4845 6.98861 13.6479 6.9009 13.8394C6.81315 14.0308 6.77329 14.2302 6.78127 14.4375C6.78127 14.7007 6.84507 14.9479 6.97268 15.1792C7.10029 15.4105 7.27575 15.5939 7.49905 15.7295L7.51102 15.7175L7.52296 15.7295L7.51102 15.7415C7.7662 15.893 8.0334 15.9688 8.31252 15.9688C8.52784 15.9688 8.72723 15.9289 8.91067 15.8491C9.0941 15.7694 9.2536 15.6617 9.38919 15.5261C9.52475 15.3906 9.63643 15.2271 9.72414 15.0357C9.81189 14.8442 9.85175 14.6448 9.84377 14.4375C9.84377 14.2222 9.80391 14.0228 9.72414 13.8394C9.64438 13.6559 9.53671 13.4964 9.40116 13.3608C9.26557 13.2253 9.10208 13.1136 8.91067 13.0259C8.71925 12.9381 8.51986 12.8983 8.31252 12.9063Z" fill="white"/>
</g>
</g>
<defs>
<clipPath id="clip0_8_108">
<rect width="35" height="35" fill="white"/>
</clipPath>
</defs>
</svg>
